<?xml version="1.0" standalone="no"?>
<!DOCTYPE svg PUBLIC "-//W3C//DTD SVG 20010904//EN"
 "http://www.w3.org/TR/2001/REC-SVG-20010904/DTD/svg10.dtd">
<svg version="1.0" xmlns="http://www.w3.org/2000/svg"
 width="48.000000pt" height="48.000000pt" viewBox="0 0 48.000000 48.000000"
 preserveAspectRatio="xMidYMid meet">
<metadata>
Created by potrace 1.15, written by Peter Selinger 2001-2017
</metadata>
<g transform="translate(0.000000,48.000000) scale(0.100000,-0.100000)"
fill="#000000" stroke="none">
<path d="M145 446 c-60 -28 -87 -56 -114 -116 -36 -79 -19 -183 42 -249 33
-36 115 -71 167 -71 52 0 134 35 167 71 34 37 63 110 63 159 0 52 -35 134 -71
167 -37 34 -110 63 -159 63 -27 0 -65 -10 -95 -24z m160 -7 c23 -7 57 -28 81
-53 85 -84 85 -208 0 -292 -84 -85 -208 -85 -292 0 -82 82 -85 203 -6 288 57
60 132 80 217 57z"/>
<path d="M198 410 c-109 -33 -166 -144 -124 -243 15 -36 79 -97 101 -97 8 0
15 9 15 20 0 13 -7 20 -19 20 -11 0 -30 14 -42 31 -22 31 -22 31 -1 20 12 -6
25 -18 30 -27 5 -9 15 -12 25 -8 25 9 20 31 -9 38 -34 9 -58 64 -44 101 6 15
10 38 10 52 0 22 3 24 23 19 28 -9 125 -9 153 -1 20 6 22 2 29 -53 9 -76 2
-97 -35 -114 -27 -11 -30 -18 -30 -55 0 -52 16 -56 68 -17 72 56 91 165 41
239 -40 58 -130 94 -191 75z"/>
</g>
</svg>
